<svg preserveAspectRatio="none" viewBox="0 0 992 716" fill="none" xmlns="http://www.w3.org/2000/svg">
<path d="M330.167 358C330.167 456.803 311.67 546.229 281.788 610.935C251.885 675.683 210.676 715.5 165.333 715.5C119.99 715.5 78.7813 675.683 48.8789 610.935C18.9962 546.229 0.5 456.803 0.5 358C0.5 259.197 18.9962 169.771 48.8789 105.065C78.7813 40.3172 119.99 0.5 165.333 0.5C210.676 0.5 251.885 40.3172 281.788 105.065C311.67 169.771 330.167 259.197 330.167 358ZM612.454 105.065C642.337 169.771 660.833 259.197 660.833 358C660.833 456.803 642.337 546.229 612.454 610.935C582.552 675.683 541.343 715.5 496 715.5C450.657 715.5 409.448 675.683 379.546 610.935C349.663 546.229 331.167 456.803 331.167 358C331.167 259.197 349.663 169.771 379.546 105.065C409.448 40.3172 450.657 0.5 496 0.5C541.343 0.5 582.552 40.3172 612.454 105.065ZM661.833 358C661.833 259.197 680.33 169.771 710.212 105.065C740.115 40.3172 781.324 0.5 826.667 0.5C872.01 0.5 913.219 40.3172 943.121 105.065C973.004 169.771 991.5 259.197 991.5 358C991.5 456.803 973.004 546.229 943.121 610.935C913.219 675.683 872.01 715.5 826.667 715.5C781.324 715.5 740.115 675.683 710.212 610.935C680.33 546.229 661.833 456.803 661.833 358Z" style="stroke-width: 1px; vector-effect: non-scaling-stroke;" stroke="#171010"/>
</svg>
